<svg xmlns="http://www.w3.org/2000/svg" xmlns:svg="http://www.w3.org/2000/svg" id="svg131" width="692.672" height="173.418" version="1.1" viewBox="0 0 183.269 45.884"><metadata id="metadata128"/><g id="layer1" transform="translate(-3.974202,-56.106753)"><g style="display:inline;fill:#fff" id="g1258" transform="translate(0.78393154,54.074889)"><path style="display:inline;fill:#fff;fill-opacity:1;stroke:#000;stroke-width:0;stroke-linecap:butt;stroke-linejoin:miter;stroke-miterlimit:4;stroke-dasharray:none;stroke-opacity:1" id="path1547" d="m 25.135418,30.072607 v 15.46569 a 1.5275724,1.5275724 29.999997 0 0 2.291359,1.322916 l 13.393679,-7.732846 a 1.5275726,1.5275726 89.999995 0 0 0,-2.645833 L 27.426777,28.74969 a 1.5275727,1.5275727 150 0 0 -2.291359,1.322917 z"/><path style="display:inline;fill:#fff;fill-opacity:1;stroke:#000;stroke-width:0;stroke-linecap:butt;stroke-linejoin:miter;stroke-miterlimit:4;stroke-dasharray:none;stroke-opacity:1" id="path1549" d="m 28.749693,26.458331 13.393677,7.732841 a 1.5275727,1.5275727 150 0 0 2.291359,-1.322916 V 17.402572 A 1.5275727,1.5275727 30.000002 0 0 42.14337,16.079656 l -13.393677,7.732841 a 1.5275723,1.5275723 90 0 0 0,2.645834 z"/><path style="display:inline;fill:#fff;fill-opacity:1;stroke:#000;stroke-width:0;stroke-linecap:butt;stroke-linejoin:miter;stroke-miterlimit:4;stroke-dasharray:none;stroke-opacity:1" id="path1551" d="m 5.48163,16.079657 14.716593,8.496627 a 4.5827175,4.5827175 59.999994 0 1 2.291359,3.968749 l 2e-6,16.993264 a 1.5275724,1.5275724 150 0 1 -2.291359,1.322916 L 5.4816298,38.364583 A 4.5827178,4.5827178 60 0 1 3.190271,34.395833 V 17.402574 A 1.5275728,1.5275728 150 0 1 5.48163,16.079657 Z"/><path style="display:inline;fill:#fff;fill-opacity:1;stroke:#000;stroke-width:0;stroke-linecap:butt;stroke-linejoin:miter;stroke-miterlimit:4;stroke-dasharray:none;stroke-opacity:1" id="path1553" d="M 6.8045467,11.142463 21.521139,2.6458319 a 4.5827171,4.5827171 -180 0 1 4.582718,-3e-7 l 14.716596,8.4966304 a 1.5275727,1.5275727 89.999998 0 1 0,2.645834 l -14.716596,8.496632 a 4.5827167,4.5827167 1.4577562e-6 0 1 -4.582718,0 L 6.8045467,13.788297 a 1.527573,1.527573 90 0 1 0,-2.645834 z"/><text style="font-style:normal;font-variant:normal;font-weight:700;font-stretch:normal;font-size:42.33330154px;line-height:1.25;font-family:'Open Sans';-inkscape-font-specification:'Open Sans, Bold';font-variant-ligatures:normal;font-variant-caps:normal;font-variant-numeric:normal;text-align:start;letter-spacing:0;word-spacing:0;writing-mode:lr-tb;text-anchor:start;display:inline;fill:#fff;fill-opacity:1;stroke:none;stroke-width:.26458299" id="text980" x="50.468" y="37.746" xml:space="preserve"><tspan id="tspan978" x="50.468" y="37.746" style="font-style:normal;font-variant:normal;font-weight:600;font-stretch:normal;font-size:42.33330154px;font-family:'Open Sans';-inkscape-font-specification:'Open Sans Semi-Bold';font-variant-ligatures:normal;font-variant-caps:normal;font-variant-numeric:normal;stroke-width:.26458299;fill:#fff">Gridap</tspan></text></g></g></svg>