<svg xmlns="http://www.w3.org/2000/svg" xmlns:svg="http://www.w3.org/2000/svg" id="svg8" width="170.216" height="170.216" version="1.1" viewBox="0 0 45.036 45.036"><metadata id="metadata5"/><g id="layer1" transform="translate(-69.940866,-87.761624)"><g style="display:inline" id="g1272" transform="translate(68.646508,-20.103579)"><path id="path1547-2" d="m 25.135418,135.90594 v 15.4657 a 1.5275724,1.5275724 29.999996 0 0 2.291359,1.32291 l 13.393678,-7.73284 a 1.527573,1.527573 90 0 0 0,-2.64584 l -13.393678,-7.73284 a 1.5275724,1.5275724 150 0 0 -2.291359,1.32291 z" style="display:inline;fill:#4063d8;fill-opacity:1;stroke:#000;stroke-width:0;stroke-linecap:butt;stroke-linejoin:miter;stroke-miterlimit:4;stroke-dasharray:none;stroke-opacity:1"/><path id="path1549-29" d="m 28.749693,132.29167 13.393676,7.73284 a 1.5275723,1.5275723 150 0 0 2.291359,-1.32291 V 123.23591 A 1.527573,1.527573 30.000007 0 0 42.143369,121.913 l -13.393676,7.73283 a 1.5275724,1.5275724 90.000012 0 0 0,2.64584 z" style="display:inline;fill:#9558b2;fill-opacity:1;stroke:#000;stroke-width:0;stroke-linecap:butt;stroke-linejoin:miter;stroke-miterlimit:4;stroke-dasharray:none;stroke-opacity:1"/><path id="path1551-7" d="m 5.4816277,121.913 14.7165953,8.49662 a 4.5827174,4.5827174 59.999993 0 1 2.291359,3.96875 l 2e-6,16.99327 a 1.5275721,1.5275721 150 0 1 -2.291359,1.32291 L 5.4816273,144.19792 a 4.5827188,4.5827188 60.000006 0 1 -2.2913586,-3.96875 v -16.99326 a 1.5275728,1.5275728 150 0 1 2.291359,-1.32291 z" style="display:inline;fill:#cb3c33;fill-opacity:1;stroke:#000;stroke-width:0;stroke-linecap:butt;stroke-linejoin:miter;stroke-miterlimit:4;stroke-dasharray:none;stroke-opacity:1"/><path id="path1553-5" d="M 6.8045442,116.9758 21.52114,108.47917 a 4.5827151,4.5827151 -180 0 1 4.582717,0 l 14.716596,8.49663 a 1.5275727,1.5275727 90.000011 0 1 0,2.64584 l -14.716596,8.49662 a 4.5827192,4.5827192 1.0926984e-6 0 1 -4.582718,0 L 6.8045447,119.62164 a 1.5275728,1.5275728 89.999989 0 1 -5e-7,-2.64584 z" style="display:inline;fill:#389826;fill-opacity:1;stroke:#000;stroke-width:0;stroke-linecap:butt;stroke-linejoin:miter;stroke-miterlimit:4;stroke-dasharray:none;stroke-opacity:1"/></g></g></svg>